# xmcd
#
# Track frame offsets: 
#        150
#        16475
#        28450
#        41600
#        52950
#        63575
#        74675
#        84425
#        96425
#        112325
#        124425
#        136600
#        148375
#        161750
#        173137
#        185750
#        198000
#        208562
#
# Disc length: 2964 seconds
#
# Revision: 0
# Processed by: cddbd v1.5.2PL0 Copyright (c) Steve Scherf et al.
# Submitted via: ExactAudioCopyFreeDBPlugin 1.0
#
DISCID=1a0b9212
DTITLE=Various Artist - Old Style Love Songs (I)
DYEAR=1900
DGENRE=Other
TTITLE0=Where Have All The Flower Gone
TTITLE1=Conway Twitty - Hello Darling
TTITLE2=Try to Remember
TTITLE3=The Wedding
TTITLE4=Diana
TTITLE5=I Will Follow Him
TTITLE6=Summer Holiday
TTITLE7=Paul Anka - Puppy Love
TTITLE8=Oh! Girl
TTITLE9=California Dreaming
TTITLE10=Mr. Lonely
TTITLE11=A Summer Place
TTITLE12=Whispering Pines
TTITLE13=The Ballad of the Green Berets
TTITLE14=My Cup Runneth Over
TTITLE15=A World Without Love
TTITLE16=Pretty Little Baby
TTITLE17=I Understand
EXTD=
EXTT0=
EXTT1=
EXTT2=
EXTT3=
EXTT4=
EXTT5=
EXTT6=
EXTT7=
EXTT8=
EXTT9=
EXTT10=
EXTT11=
EXTT12=
EXTT13=
EXTT14=
EXTT15=
EXTT16=
EXTT17=
PLAYORDER=
